<?xml version="1.0" standalone="no"?>
<!DOCTYPE svg PUBLIC "-//W3C//DTD SVG 20010904//EN"
 "http://www.w3.org/TR/2001/REC-SVG-20010904/DTD/svg10.dtd">
<svg version="1.0" xmlns="http://www.w3.org/2000/svg"
 width="1024.000000pt" height="1024.000000pt" viewBox="0 0 1024.000000 1024.000000"
 preserveAspectRatio="xMidYMid meet">

<g transform="translate(0.000000,1024.000000) scale(0.100000,-0.100000)"
fill="#000000" stroke="none">
<path d="M4960 8953 c-953 -423 -1907 -690 -2897 -808 -114 -14 -255 -28 -314
-31 l-108 -7 -5 -36 c-13 -86 -17 -740 -7 -1026 63 -1744 362 -2886 1013
-3865 520 -780 1274 -1424 2258 -1929 l224 -115 155 80 c206 105 533 295 709
410 748 490 1359 1114 1764 1799 198 336 327 625 468 1055 238 722 356 1497
391 2565 9 298 5 893 -7 1013 l-5 52 -45 0 c-68 0 -412 37 -611 66 -645 92
-1304 256 -1894 469 -237 86 -592 229 -768 309 -80 36 -152 66 -160 65 -9 -1
-81 -30 -161 -66z m372 -494 c262 -113 391 -164 623 -246 654 -232 1498 -424
2158 -489 l67 -6 0 -37 c-2 -249 -22 -955 -30 -1086 -60 -937 -212 -1689 -472
-2335 -64 -159 -219 -479 -293 -607 -121 -205 -282 -434 -444 -628 -109 -132
-476 -494 -626 -619 -330 -274 -649 -489 -1039 -699 l-149 -81 -111 57 c-389
197 -804 480 -1166 792 -976 843 -1508 1926 -1699 3460 -49 394 -71 752 -79
1347 l-7 436 65 7 c908 92 1845 341 2785 739 110 46 201 85 202 85 1 1 98 -40
215 -90z"/>
<path d="M4990 7799 c-141 -16 -303 -63 -334 -97 -14 -16 -16 -72 -18 -508
l-3 -489 -38 150 c-36 144 -69 381 -83 588 -5 72 -9 87 -22 87 -44 0 -270
-107 -395 -187 -483 -309 -802 -850 -846 -1433 l-9 -124 -44 -40 c-183 -167
-196 -181 -208 -241 -15 -72 -5 -148 24 -182 20 -23 32 -26 149 -36 l127 -11
0 -155 c0 -194 16 -458 35 -564 19 -109 62 -193 131 -256 53 -48 57 -55 80
-143 108 -408 258 -667 578 -995 377 -388 516 -449 1021 -447 367 1 514 37
695 169 87 64 383 357 475 470 193 238 326 506 405 816 19 72 24 82 80 135 69
66 102 127 124 234 20 98 36 352 36 566 l0 172 98 7 c185 13 205 28 206 153 0
106 -15 132 -143 247 l-108 96 -11 132 c-36 395 -177 746 -419 1047 -72 89
-223 236 -313 305 -149 114 -424 257 -500 259 l-35 1 -8 -145 c-9 -184 -37
-371 -79 -541 l-33 -134 -5 486 c-4 402 -7 489 -19 503 -36 43 -147 78 -320
102 -117 15 -159 16 -271 3z m345 -840 c22 -8 61 -34 86 -59 39 -37 49 -55 60
-103 22 -104 -18 -204 -98 -246 l-36 -18 55 -25 c91 -42 135 -122 125 -229 -9
-107 -78 -192 -177 -219 -20 -5 -147 -11 -283 -12 l-247 -3 0 469 0 468 238
-5 c159 -3 250 -9 277 -18z m485 -1249 c266 -11 541 -28 590 -36 31 -5 33 -7
15 -17 -29 -17 -2581 -17 -2610 0 -19 11 -19 12 5 17 33 7 329 26 550 35 261
12 1192 12 1450 1z m779 -557 c4 -408 -56 -758 -194 -1128 -114 -304 -319
-588 -624 -860 -123 -110 -202 -157 -295 -175 -91 -18 -491 -25 -629 -11 -159
15 -219 41 -339 140 -353 295 -586 616 -707 974 -121 358 -171 653 -171 1025
l0 162 1479 0 1479 0 1 -127z"/>
<path d="M5010 6701 l0 -111 88 0 c106 0 155 13 182 47 29 37 27 103 -4 140
-24 27 -27 28 -145 31 l-121 4 0 -111z"/>
<path d="M5010 6326 l0 -116 114 0 c62 0 127 5 145 11 52 18 76 89 51 153 -16
43 -63 59 -192 64 l-118 5 0 -117z"/>
</g>
</svg>
